<svg version="1.1" id="Layer_1" xmlns="http://www.w3.org/2000/svg" xmlns:xlink="http://www.w3.org/1999/xlink" x="0px" y="0px"
	 width="100%" viewBox="0 0 1024 1024" enable-background="new 0 0 1024 1024" xml:space="preserve">
<path fill="#ee5e2f" opacity="1.000000" stroke="none"
	d="
M546.923462,315.724060
	C538.771973,353.045227 522.197388,386.401367 503.774963,418.961609
	C489.749298,443.750946 475.318542,468.313141 461.477386,493.204010
	C454.602234,505.567719 448.626373,518.380859 446.180939,532.600220
	C443.540039,547.956177 447.694214,561.485168 457.108856,573.263550
	C470.849945,590.454712 486.778107,605.713318 501.612213,621.944153
	C505.321075,626.002197 508.909149,630.201477 512.919495,633.942749
	C515.779541,636.610901 516.209778,639.231628 515.167358,642.827087
	C506.871155,671.441895 498.690582,700.090149 490.502563,728.736206
	C485.150299,747.461121 479.830261,766.195312 474.540894,784.938110
	C474.024109,786.769348 473.824677,788.690125 473.319061,791.430298
	C477.224487,788.723511 478.740051,785.278748 480.757996,782.361084
	C512.127869,737.004028 543.394043,691.575317 574.704590,646.177246
	C583.596558,633.284607 592.463806,620.372986 601.544189,607.613770
	C603.824036,604.410400 603.547913,602.337646 600.922852,599.474792
	C576.824219,573.192688 552.932922,546.720215 528.789062,520.480042
	C525.671387,517.091736 525.357910,514.538696 527.366882,510.437164
	C547.735291,468.854095 569.507812,427.963898 588.920776,385.911499
	C593.736694,375.479370 598.555786,365.040009 602.409241,354.190948
	C602.997131,352.535797 603.369873,350.613129 605.733337,349.561310
	C610.207153,355.104248 613.057251,361.691284 616.612305,367.804993
	C637.716858,404.100006 658.853821,440.382507 678.719482,477.375702
	C689.394348,497.254181 698.076477,517.981018 702.216309,540.322449
	C708.480835,574.130737 702.440125,605.806274 685.761536,635.739685
	C676.698914,652.004395 664.681274,666.092346 653.508423,680.791565
	C618.029114,727.468872 582.322754,773.973633 546.709106,820.548889
	C536.795532,833.513794 526.913086,846.502625 516.976685,859.449951
	C515.783020,861.005127 514.764465,862.802917 512.863403,863.606445
	C511.229126,863.558838 510.515259,862.380432 509.715332,861.335510
	C457.348938,792.931396 404.824982,724.646973 352.698822,656.060242
	C331.802826,628.565613 320.716522,597.399048 321.891479,562.527771
	C322.721924,537.881409 329.751648,514.668396 339.688873,492.278168
	C357.024506,453.217896 378.632812,416.424561 399.836884,379.424805
	C430.566772,325.803009 464.067688,273.769958 492.240509,218.684875
	C503.328766,197.004517 513.027771,174.722656 519.122375,151.028305
	C519.478516,149.643692 519.500854,148.008881 521.751465,146.297943
	C535.310120,172.414062 544.554260,199.649551 549.229797,228.454254
	C553.950378,257.535583 553.148193,286.499969 546.923462,315.724060
z"/>
</svg>
