<svg xmlns="http://www.w3.org/2000/svg" viewBox="0 0 1024 1024">
<path fill="#ee5e2f" d="M546.923 315.724C538.772 353.045 522.197 386.401 503.775 418.962C489.749 443.751 475.319 468.313 461.477 493.204C454.602 505.568 448.626 518.381 446.181 532.600C443.540 547.956 447.694 561.485 457.109 573.264C470.850 590.455 486.778 605.713 501.612 621.944C505.321 626.002 508.909 630.201 512.919 633.943C515.780 636.611 516.210 639.232 515.167 642.827C506.871 671.442 498.691 700.090 490.503 728.736C485.150 747.461 479.830 766.195 474.541 784.938C474.024 786.769 473.825 788.690 473.319 791.430C477.224 788.724 478.740 785.279 480.758 782.361C512.128 737.004 543.394 691.575 574.705 646.177C583.597 633.285 592.464 620.373 601.544 607.614C603.824 604.410 603.548 602.338 600.923 599.475C576.824 573.193 552.933 546.720 528.789 520.480C525.671 517.092 525.358 514.539 527.367 510.437C547.735 468.854 569.508 427.964 588.921 385.911C593.737 375.479 598.556 365.040 602.409 354.191C602.997 352.536 603.370 350.613 605.733 349.561C610.207 355.104 613.057 361.691 616.612 367.805C637.717 404.100 658.854 440.383 678.719 477.376C689.394 497.254 698.076 517.981 702.216 540.322C708.481 574.131 702.440 605.806 685.762 635.740C676.699 652.004 664.681 666.092 653.508 680.792C618.029 727.469 582.323 773.974 546.709 820.549C536.796 833.514 526.913 846.503 516.977 859.450C515.783 861.005 514.764 862.803 512.863 863.606C511.229 863.559 510.515 862.380 509.715 861.336C457.349 792.931 404.825 724.647 352.699 656.060C331.803 628.566 320.717 597.399 321.891 562.528C322.722 537.881 329.752 514.668 339.689 492.278C357.025 453.218 378.633 416.425 399.837 379.425C430.567 325.803 464.068 273.770 492.241 218.685C503.329 197.005 513.028 174.723 519.122 151.028C519.479 149.644 519.501 148.009 521.751 146.298C535.310 172.414 544.554 199.650 549.230 228.454C553.950 257.536 553.148 286.500 546.923 315.724z"/>
</svg>
